<svg viewBox="0 0 25 25" fill="none" xmlns="http://www.w3.org/2000/svg">
<g clip-path="url(#clip0_2645_9)">
<path d="M0.152589 12.8684L7.96509 20.6809C8.16855 20.8844 8.49814 20.8844 8.70156 20.6809C8.90503 20.4774 8.90503 20.1478 8.70156 19.9444L1.77812 13.021L24.4792 13.021C24.767 13.021 25 12.788 25 12.5001C25 12.2122 24.767 11.9793 24.4792 11.9793L1.77813 11.9793L8.70156 5.05589C8.90503 4.85243 8.90503 4.52284 8.70156 4.31942C8.59986 4.21771 8.46655 4.16683 8.3333 4.16683C8.20005 4.16683 8.0668 4.21771 7.96504 4.31942L0.152539 12.1319C-0.0508785 12.3353 -0.0508782 12.6649 0.152589 12.8684Z" fill="#2C3E50"/>
</g>
<defs>
<clipPath id="clip0_2645_9">
<rect width="25" height="25" fill="white" transform="translate(25 25) rotate(-180)"/>
</clipPath>
</defs>
</svg>
